# xmcd
#
# Track frame offsets:
#	150
#	3388
#	19981
#	47145
#	74057
#	106021
#	138966
#	159947
#	173197
#	194644
#	208296
#	219588
#	237774
#
# Disc length: 3275 seconds
#
# Revision: 2
# Processed by: cddbd v1.5.1PL2 Copyright (c) Steve Scherf et al.
# Submitted via: EasyCDDAExtractor 8.0.2.1
#
DISCID=bb0cc90d
DTITLE=Dio - Kangaroo Madrid 09-11-93 Disc 1
DYEAR=1993
DGENRE=Hard Rock
TTITLE0=Intro
TTITLE1=Stand Up And Shout
TTITLE2=Strange Highways
TTITLE3=Don't Talk To Strangers
TTITLE4=Evilution
TTITLE5=Pain Incl Guitar Solo
TTITLE6=The Mob Rules
TTITLE7=Children Of The Sea
TTITLE8=Holy Diver
TTITLE9=Heaven and Hell
TTITLE10=Man On The Silver Mountain
TTITLE11=Drum Solo
TTITLE12=Heaven and Hell Reprise
EXTD=
EXTT0=
EXTT1=
EXTT2=
EXTT3=
EXTT4=
EXTT5=
EXTT6=
EXTT7=
EXTT8=
EXTT9=
EXTT10=
EXTT11=
EXTT12=
PLAYORDER=
